<svg xmlns="http://www.w3.org/2000/svg" viewBox="0 0 53.87 50.96"><defs><style>.cls-1{fill:#fff;}</style></defs><title>Icon_White</title><g id="Layer_2" data-name="Layer 2"><g id="Layer_1-2" data-name="Layer 1"><path class="cls-1" d="M51.46,29.81H39.77a3.62,3.62,0,0,0-3.61,3.61v2.71a3.62,3.62,0,0,0,3.61,3.61H51.46a2.42,2.42,0,0,0,2.41-2.41V32.22A2.42,2.42,0,0,0,51.46,29.81ZM41.07,36.59a1.81,1.81,0,1,1,1.81-1.81A1.81,1.81,0,0,1,41.07,36.59Z"/><path class="cls-1" d="M27.84.27a1.18,1.18,0,0,0-1.66.15l-6,7.21,24.21,6.49Z"/><path class="cls-1" d="M11.9,7.87a1.18,1.18,0,0,0-1.45.83l-2.15,8H45Z"/><path class="cls-1" d="M51.46,14.94v-2a1.21,1.21,0,0,0-1.2-1.2H45.18L49,14.94Z"/><path class="cls-1" d="M50.4,42.15H39.77a6,6,0,0,1-6-6V33.42a6,6,0,0,1,6-6H51.46V18.55H5.35a.6.6,0,0,1-.6-.6V16.86s0,0,0,0,0,0,0-.07A1.91,1.91,0,0,1,6.3,15.06l.89-3.32H6a6,6,0,0,0-6,6V44.94a6,6,0,0,0,6,6H50.25a1.21,1.21,0,0,0,1.2-1.2v-7.6H50.4Z"/></g></g></svg>