<?xml version="1.0" encoding="utf-8"?>
<svg version="1.1" id="Layer_1" xmlns="http://www.w3.org/2000/svg" xmlns:xlink="http://www.w3.org/1999/xlink" x="0px" y="0px"
	 viewBox="0 0 262.6 77.9" style="enable-background:new 0 0 262.6 77.9;" xml:space="preserve">
<style type="text/css">
	.st0{fill:#ffffff;}
</style>
<g>
	<path class="st0" d="M134,20.6v6.1c-1-0.8-2.1-1.6-3.3-2.3c-4.4-2.5-9.1-3.8-14.3-3.8c-5.2,0-9.9,1.3-14.3,3.8
		c-4.4,2.5-7.8,6-10.4,10.4c-2.6,4.4-3.9,9.2-3.9,14.3c0,5.2,1.3,10,3.9,14.3c2.6,4.4,6.1,7.9,10.4,10.4c4.4,2.5,9.1,3.8,14.3,3.8
		c3.8,0,7.4-0.9,10.7-2.8c3.3-1.8,5.6-4.1,6.9-6.9v8.8h10.9V61.8V49.2V20.6H134z M131.8,58.3c-1.6,2.8-3.7,4.9-6.3,6.5
		c-2.7,1.6-5.6,2.4-9,2.4s-6.3-0.8-9-2.4c-2.7-1.6-4.8-3.8-6.4-6.5c-1.6-2.8-2.4-5.8-2.4-9.1s0.8-6.4,2.3-9.1
		c1.6-2.8,3.7-4.9,6.4-6.5c2.7-1.6,5.8-2.4,9.1-2.4s6.3,0.8,9,2.4c2.7,1.6,4.8,3.8,6.3,6.5c1.5,2.8,2.3,5.8,2.3,9.1
		S133.3,55.5,131.8,58.3z"/>
	<path class="st0" d="M83.1,22.2L64.8,77.5H53.9L41.5,38.7L29.1,77.5H18.3L0,22.2h11.1l12.6,41.1l12.4-41.1H47l12.4,41.1L72,22.2
		H83.1z"/>
	<path class="st0" d="M159.5,77.5V0h10.9v77.5H159.5z"/>
	<path class="st0" d="M184.8,77.5V0h10.9v77.5H184.8z"/>
	<path class="st0" d="M212,12.6c-1.3-1.3-1.9-2.9-1.9-4.7c0-1.9,0.6-3.5,1.9-4.8c1.3-1.3,2.9-1.9,4.7-1.9c1.8,0,3.4,0.6,4.7,1.9
		c1.3,1.3,1.9,2.9,1.9,4.7s-0.6,3.4-1.9,4.7c-1.3,1.3-2.8,1.9-4.7,1.9C214.8,14.5,213.2,13.9,212,12.6z M211.2,22.2h10.9v55.4h-10.9
		V22.2z"/>
	<path class="st0" d="M250.7,32.7v18.6c0,5.2,1,9,3,11.6c2,2.6,5,4.1,9,4.4v10.5c-6.9-0.3-12.5-2.6-16.6-7
		c-4.1-4.4-6.2-10.9-6.3-19.4V32.7h-8.2V22.2h8.2V2.3h10.9v19.8h12v10.5H250.7z"/>
</g>
</svg>
